<svg width="47" height="43" viewBox="0 0 47 43" fill="none" xmlns="http://www.w3.org/2000/svg">
<g id="Group 16">
<rect id="Rectangle 4" x="0.938477" width="46" height="43" rx="10" fill="#89ADF7"/>
<path id="Vector" d="M23.9384 19.3999C21.9872 19.3999 20.3384 21.0487 20.3384 22.9999C20.3384 24.9511 21.9872 26.5999 23.9384 26.5999C25.8896 26.5999 27.5384 24.9511 27.5384 22.9999C27.5384 21.0487 25.8896 19.3999 23.9384 19.3999Z" fill="white"/>
<path id="Vector_2" d="M33.5385 14.6H30.4353L27.1869 11.3516C27.0756 11.24 26.9434 11.1514 26.7978 11.0911C26.6522 11.0307 26.4961 10.9998 26.3385 11H21.5385C21.3809 10.9998 21.2248 11.0307 21.0792 11.0911C20.9336 11.1514 20.8013 11.24 20.6901 11.3516L17.4417 14.6H14.3385C13.0149 14.6 11.9385 15.6764 11.9385 17V30.2C11.9385 31.5236 13.0149 32.6 14.3385 32.6H33.5385C34.8621 32.6 35.9385 31.5236 35.9385 30.2V17C35.9385 15.6764 34.8621 14.6 33.5385 14.6ZM23.9385 29C20.6865 29 17.9385 26.252 17.9385 23C17.9385 19.748 20.6865 17 23.9385 17C27.1905 17 29.9385 19.748 29.9385 23C29.9385 26.252 27.1905 29 23.9385 29Z" fill="white"/>
</g>
</svg>
